<svg xmlns="http://www.w3.org/2000/svg" viewBox="0 0 32 32">
  <!-- Crimson background -->
  <rect width="32" height="32" rx="6" fill="#b21e3a"/>
  <!-- Falcon silhouette (simplified) — wings spread, head right, talons down -->
  <g fill="#fff">
    <!-- Body -->
    <ellipse cx="16" cy="17" rx="2.8" ry="5.5"/>
    <!-- Head -->
    <circle cx="18" cy="10.5" r="2.4"/>
    <!-- Beak -->
    <path d="M20.2 10.8 L22 12.2 L20.5 12" stroke="#fff" stroke-width="0.5" fill="#fff"/>
    <!-- Left wing -->
    <path d="M13.5 16 C10 13 4 12.5 2 9 C3 12 5 15 8 16.5 C10 17.5 12 17 13.5 16Z"/>
    <!-- Right wing -->
    <path d="M18.5 16 C22 13 28 12.5 30 9 C29 12 27 15 24 16.5 C22 17.5 20 17 18.5 16Z"/>
    <!-- Left talon -->
    <path d="M14.5 22 L13 25 L14 25.5 L15 23Z"/>
    <path d="M14.5 22 L12.5 24.5 L13.5 25.2 L15 23Z"/>
    <!-- Right talon -->
    <path d="M17.5 22 L19 25 L18 25.5 L17 23Z"/>
    <path d="M17.5 22 L19.5 24.5 L18.5 25.2 L17 23Z"/>
  </g>
</svg>
